<?xml version="1.0" encoding="UTF-8"?>
<svg xmlns="http://www.w3.org/2000/svg" xmlns:xlink="http://www.w3.org/1999/xlink" viewBox="0 0 50 50" width="50px" height="50px">
<g id="surface5059576">
<path style="fill-rule:nonzero;fill:rgb(0%,0%,0%);fill-opacity:1;stroke-width:1;stroke-linecap:butt;stroke-linejoin:round;stroke:rgb(80.000001%,80.000001%,80.000001%);stroke-opacity:1;stroke-miterlimit:10;" d="M 207.450303 38.191391 L 203.674418 45.725433 L 207.71621 62.15851 C 207.804846 62.513053 207.858028 62.867596 207.858028 63.239866 L 207.911209 85.877448 C 207.911209 87.082895 207.450303 88.23516 206.599399 89.086064 L 202.593061 93.074674 L 199.863079 98.552367 L 202.078974 100.768261 C 202.929877 101.601438 203.408511 102.753703 203.408511 103.95915 L 203.408511 124.682199 L 206.599399 127.873087 C 207.450303 128.741718 207.928936 129.91171 207.911209 131.134884 C 207.627574 154.056101 207.911209 198.409452 207.911209 198.852631 C 207.928936 200.253076 207.290758 201.564886 206.191675 202.433517 C 205.092591 203.284421 203.656691 203.603509 202.309427 203.266693 L 189.847234 200.146713 L 189.847234 203.408511 C 189.847234 205.90804 187.826338 207.911209 185.326809 207.911209 L 162.724681 207.911209 C 158.789252 207.911209 156.502449 204.933046 154.268827 202.043519 C 154.002919 201.688976 153.737012 201.334433 153.453377 200.97989 L 152.354293 202.078974 C 151.50339 202.929877 150.368852 203.408511 149.163405 203.408511 L 126.561277 203.408511 C 125.373558 203.408511 123.54766 204.312596 121.792672 205.181227 C 119.239961 206.475309 116.332707 207.911209 113.000001 207.911209 L 99.438724 207.911209 C 95.219661 207.911209 91.886955 204.950774 89.476061 201.671249 L 89.068337 202.078974 C 88.23516 202.929877 87.082895 203.408511 85.877448 203.408511 L 22.591491 203.408511 C 21.155591 203.408511 19.7906 202.699424 18.939696 201.529432 C 18.088793 200.359439 17.85834 198.834904 18.319246 197.452185 L 22.41422 185.149537 L 18.212883 168.344191 C 18.000157 167.511014 18.035611 166.624656 18.319246 165.809207 L 22.591491 152.93929 L 22.591491 132.943055 L 19.400603 129.752166 C 18.549699 128.91899 18.088793 127.766724 18.088793 126.561277 L 18.088793 108.479575 C 18.088793 107.238674 18.585153 106.050955 19.489238 105.200051 L 22.556037 102.292797 L 22.591491 95.450114 C 21.811496 92.188317 18.088793 76.038875 18.088793 63.275321 L 18.088793 27.111917 C 18.088793 24.630114 20.091962 22.591491 22.591491 22.591491 L 67.795746 22.591491 C 69.586189 22.591491 71.217088 23.655121 71.943901 25.303746 C 72.298444 26.119196 72.723896 26.775101 73.025258 27.111917 L 85.416542 27.111917 C 88.394705 27.111917 90.326965 23.105579 90.415601 22.148312 C 90.663781 19.861509 92.613768 18.088793 94.918299 18.088793 L 126.561277 18.088793 C 129.060807 18.088793 131.081703 20.109689 131.081703 22.591491 C 131.081703 23.885574 132.109878 25.711471 133.15578 27.111917 L 136.825302 27.111917 C 138.491655 22.520583 141.328001 18.088793 149.163405 18.088793 L 176.285958 18.088793 C 178.785487 18.088793 180.806383 20.109689 180.806383 22.591491 L 180.806383 23.052397 C 182.100466 22.715581 183.536366 22.591491 185.326809 22.591491 L 203.408511 22.591491 C 205.90804 22.591491 207.911209 24.630114 207.911209 27.111917 L 207.911209 36.152768 C 207.911209 36.861854 207.751665 37.553213 207.450303 38.191391 Z M 126.561277 63.275321 L 163.256496 90.397873 L 167.84783 63.275321 L 154.073828 54.23447 Z M 94.918299 162.724681 L 58.754895 126.561277 L 49.714044 158.204256 L 67.795746 171.765532 Z M 176.285958 137.942113 L 66.590299 54.23447 L 49.714044 58.418079 L 142.533447 167.245107 L 163.628766 167.245107 Z M 176.285958 137.942113 " transform="matrix(0.220354,0,0,0.220354,0.1,0.1)"/>
<path style=" stroke:none;fill-rule:nonzero;fill:rgb(100%,100%,100%);fill-opacity:1;" d="M 45.914062 8.066406 L 45.914062 6.074219 C 45.914062 5.527344 45.472656 5.078125 44.921875 5.078125 L 40.9375 5.078125 C 40.542969 5.078125 40.226562 5.105469 39.941406 5.179688 L 39.941406 5.078125 C 39.941406 4.53125 39.496094 4.085938 38.945312 4.085938 L 32.96875 4.085938 C 31.242188 4.085938 30.617188 5.0625 30.25 6.074219 L 29.441406 6.074219 C 29.210938 5.765625 28.984375 5.363281 28.984375 5.078125 C 28.984375 4.53125 28.539062 4.085938 27.988281 4.085938 L 21.015625 4.085938 C 20.507812 4.085938 20.078125 4.476562 20.023438 4.980469 C 20.003906 5.191406 19.578125 6.074219 18.921875 6.074219 L 16.191406 6.074219 C 16.125 6 16.03125 5.855469 15.953125 5.675781 C 15.792969 5.3125 15.433594 5.078125 15.039062 5.078125 L 5.078125 5.078125 C 4.527344 5.078125 4.085938 5.527344 4.085938 6.074219 L 4.085938 14.042969 C 4.085938 16.855469 4.90625 20.414062 5.078125 21.132812 L 5.070312 22.640625 L 4.394531 23.28125 C 4.195312 23.46875 4.085938 23.730469 4.085938 24.003906 L 4.085938 27.988281 C 4.085938 28.253906 4.1875 28.507812 4.375 28.691406 L 5.078125 29.394531 L 5.078125 33.800781 L 4.136719 36.636719 C 4.074219 36.816406 4.066406 37.011719 4.113281 37.195312 L 5.039062 40.898438 L 4.136719 43.609375 C 4.035156 43.914062 4.085938 44.25 4.273438 44.507812 C 4.460938 44.765625 4.761719 44.921875 5.078125 44.921875 L 19.023438 44.921875 C 19.289062 44.921875 19.542969 44.816406 19.726562 44.628906 L 19.816406 44.539062 C 20.347656 45.261719 21.082031 45.914062 22.011719 45.914062 L 25 45.914062 C 25.734375 45.914062 26.375 45.597656 26.9375 45.3125 C 27.324219 45.121094 27.726562 44.921875 27.988281 44.921875 L 32.96875 44.921875 C 33.234375 44.921875 33.484375 44.816406 33.671875 44.628906 L 33.914062 44.386719 C 33.976562 44.464844 34.035156 44.542969 34.09375 44.621094 C 34.585938 45.257812 35.089844 45.914062 35.957031 45.914062 L 40.9375 45.914062 C 41.488281 45.914062 41.933594 45.472656 41.933594 44.921875 L 41.933594 44.203125 L 44.679688 44.890625 C 44.976562 44.964844 45.292969 44.894531 45.535156 44.707031 C 45.777344 44.515625 45.917969 44.226562 45.914062 43.917969 C 45.914062 43.820312 45.851562 34.046875 45.914062 28.996094 C 45.917969 28.726562 45.8125 28.46875 45.625 28.277344 L 44.921875 27.574219 L 44.921875 23.007812 C 44.921875 22.742188 44.816406 22.488281 44.628906 22.304688 L 44.140625 21.816406 L 44.742188 20.609375 L 45.625 19.730469 C 45.8125 19.542969 45.914062 19.289062 45.914062 19.023438 L 45.902344 14.035156 C 45.902344 13.953125 45.890625 13.875 45.871094 13.796875 L 44.980469 10.175781 L 45.8125 8.515625 C 45.878906 8.375 45.914062 8.222656 45.914062 8.066406 Z M 34.050781 12.050781 L 37.085938 14.042969 L 36.074219 20.019531 L 27.988281 14.042969 Z M 15.039062 37.949219 L 11.054688 34.960938 L 13.046875 27.988281 L 21.015625 35.957031 Z M 36.15625 36.953125 L 31.507812 36.953125 L 11.054688 12.972656 L 14.773438 12.050781 L 38.945312 30.496094 Z M 36.15625 36.953125 "/>
</g>
</svg>
